HIERARCHY
ROOT RootJoint
{
    OFFSET   0.000000   0.000000   0.000000
    CHANNELS 6 Xposition Yposition Zposition Xrotation Yrotation Zrotation
    JOINT pelvis_lowerback
    {
        OFFSET   0.000000   0.093605   0.000000
        CHANNELS 3 Xrotation Yrotation Zrotation
        JOINT lowerback_torso
        {
            OFFSET   0.000000   0.100000   0.000000
            CHANNELS 3 Xrotation Yrotation Zrotation
            JOINT torso_head
            {
                OFFSET   0.000000   0.282350   0.000000
                CHANNELS 3 Xrotation Yrotation Zrotation
                End Site
                {
                    OFFSET   0.000000   0.192650   0.000000
                }
            }
            JOINT rTorso_Clavicle
            {
                OFFSET  -0.001000   0.157500   0.000000
                CHANNELS 3 Xrotation Yrotation Zrotation
                JOINT rShoulder
                {
                    OFFSET  -0.117647   0.000000   0.000000
                    CHANNELS 3 Xrotation Yrotation Zrotation
                    JOINT rElbow
                    {
                        OFFSET  -0.245000   0.000000   0.000000
                        CHANNELS 3 Xrotation Yrotation Zrotation
                        JOINT rWrist
                        {
                            OFFSET  -0.240000   0.000000   0.000000
                            CHANNELS 3 Xrotation Yrotation Zrotation
                            End Site
                            {
                                OFFSET  -0.116353  -0.002500   0.000000
                            }
                        }
                    }
                }
            }
            JOINT lTorso_Clavicle
            {
                OFFSET   0.001000   0.157500   0.000000
                CHANNELS 3 Xrotation Yrotation Zrotation
                JOINT lShoulder
                {
                    OFFSET   0.117647   0.000000   0.000000
                    CHANNELS 3 Xrotation Yrotation Zrotation
                    JOINT lElbow
                    {
                        OFFSET   0.245000   0.000000   0.000000
                        CHANNELS 3 Xrotation Yrotation Zrotation
                        JOINT lWrist
                        {
                            OFFSET   0.240000   0.000000   0.000000
                            CHANNELS 3 Xrotation Yrotation Zrotation
                            End Site
                            {
                                OFFSET   0.116353  -0.002500   0.000000
                            }
                        }
                    }
                }
            }
        }
    }
    JOINT rHip
    {
        OFFSET  -0.100000  -0.051395   0.000000
        CHANNELS 3 Xrotation Yrotation Zrotation
        JOINT rKnee
        {
            OFFSET   0.000000  -0.410000   0.000000
            CHANNELS 3 Xrotation Yrotation Zrotation
            JOINT rAnkle
            {
                OFFSET   0.000000  -0.390000   0.000000
                CHANNELS 3 Xrotation Yrotation Zrotation
                JOINT rToeJoint
                {
                    OFFSET   0.000000  -0.050000   0.130000
                    CHANNELS 3 Xrotation Yrotation Zrotation
                    End Site
                    {
                        OFFSET  -0.010000   0.002000   0.060000
                    }
                }
            }
        }
    }
    JOINT lHip
    {
        OFFSET   0.100000  -0.051395   0.000000
        CHANNELS 3 Xrotation Yrotation Zrotation
        JOINT lKnee
        {
            OFFSET   0.000000  -0.410000   0.000000
            CHANNELS 3 Xrotation Yrotation Zrotation
            JOINT lAnkle
            {
                OFFSET   0.000000  -0.390000   0.000000
                CHANNELS 3 Xrotation Yrotation Zrotation
                JOINT lToeJoint
                {
                    OFFSET   0.000000  -0.050000   0.130000
                    CHANNELS 3 Xrotation Yrotation Zrotation
                    End Site
                    {
                        OFFSET   0.010000   0.002000   0.060000
                    }
                }
            }
        }
    }
}
MOTION
Frames: 14
Frame Time:   0.008333
 -2.259729   0.792224   4.038307  -2.001115  16.695320  -0.796738  64.576926   0.648118   6.657790  -0.215989   0.402763   2.191898  -8.295685  -5.452065  -3.909356  -7.956459  25.149186   8.024131 -29.728089   3.347540  28.485372  -0.000338  59.248017   0.000397  -0.282810   2.432987 -10.819940  -4.573981 -15.453599  -7.993454 -13.082403   1.063798 -37.474456   0.007772 -85.781169   0.008124   1.012915  -6.444198  16.906887 -42.772020  -3.558014 -13.467676  48.400063  -0.000372  -0.001190  -5.376284  -2.677996   4.893934   2.492314   0.000297   0.000486 -26.713542   3.954618  23.321850  58.105884  -0.002162  -0.001510 -29.107329   5.883280  -0.706912  -1.334298  -0.000418   0.003322
 -2.259929   0.793267   4.038358  -2.086224  16.794629  -0.693877  64.437706   0.620141   6.551259  -0.112702   0.382988   2.145159  -8.350233  -5.480867  -3.849428  -7.970068  24.989035   8.151478 -29.621753   3.137520  28.630582  -0.000258  59.327885   0.000340  -0.282907   2.449204 -10.796602  -4.507344 -15.370393  -7.948750 -13.079190   1.094366 -37.539476   0.008129 -85.701393   0.008531   1.018802  -6.377094  16.834761 -42.500845  -3.487685 -13.490296  48.134281  -0.000383  -0.001314  -5.247841  -2.694283   4.858655   2.560751   0.000278   0.000469 -26.497975   3.943814  23.164615  57.848305  -0.001744  -0.001139 -29.158376   5.885895  -0.600704  -1.051997  -0.000475   0.002595
 -2.259957   0.794479   4.038495  -2.146816  16.810767  -0.605943  64.263302   0.600792   6.428965  -0.009285   0.372587   2.074181  -8.398256  -5.506871  -3.798450  -7.965486  24.833702   8.283427 -29.508407   2.933911  28.781604  -0.000203  59.403102   0.000320  -0.281487   2.472831 -10.732526  -4.430170 -15.282105  -7.921029 -13.063127   1.130141 -37.611875   0.008079 -85.624933   0.008515   1.020067  -6.298585  16.748956 -42.234639  -3.438362 -13.495356  47.812518  -0.000345  -0.001263  -5.145218  -2.711880   4.825582   2.632589   0.000251   0.000411 -26.236266   3.944614  22.985920  57.543036  -0.001315  -0.000574 -29.217068   5.855914  -0.491278  -0.798170  -0.000478   0.001725
 -2.259848   0.795755   4.038693  -2.183658  16.775969  -0.538650  64.063733   0.583939   6.305876   0.077709   0.368707   1.999575  -8.444046  -5.530945  -3.752402  -7.951752  24.683959   8.413153 -29.394836   2.738409  28.929833  -0.000196  59.472251   0.000344  -0.281429   2.489046 -10.646456  -4.347326 -15.189116  -7.900725 -13.039074   1.170227 -37.684912   0.007797 -85.552767   0.008240   1.018398  -6.214936  16.655943 -41.983360  -3.409974 -13.487477  47.462939  -0.000277  -0.001076  -5.063092  -2.731331   4.796286   2.696877   0.000217   0.000331 -25.960826   3.946722  22.804294  57.221036  -0.000908   0.000057 -29.277663   5.824874  -0.382907  -0.566533  -0.000458   0.000938
 -2.259619   0.797032   4.038939  -2.205140  16.705231  -0.487914  63.848069   0.566766   6.187649   0.146089   0.367855   1.927867  -8.488329  -5.553365  -3.709718  -7.934054  24.539741   8.536525 -29.284815   2.552386  29.070844  -0.000229  59.536065   0.000402  -0.282641   2.498247 -10.554069  -4.263906 -15.094478  -7.882519 -13.011725   1.212273 -37.754481   0.007392 -85.485026   0.007815   1.015271  -6.129925  16.563135 -41.746610  -3.395987 -13.471023  47.104081  -0.000200  -0.000803  -4.995466  -2.751535   4.770156   2.754417   0.000183   0.000247 -25.681222   3.951299  22.626631  56.898903  -0.000551   0.000659 -29.337652   5.794357  -0.278124  -0.354748  -0.000424   0.000282
 -2.259280   0.798274   4.039228  -2.217393  16.607132  -0.450120  63.622329   0.547904   6.077255   0.196378   0.367711   1.861563  -8.531098  -5.574270  -3.669760  -7.915278  24.401137   8.651532 -29.180291   2.376581  29.202631  -0.000292  59.595337   0.000480  -0.284496   2.503504 -10.463754  -4.183138 -15.000770  -7.864107 -12.984023   1.254361 -37.818896   0.006919 -85.421847   0.007304   1.011829  -6.046746  16.474804 -41.523447  -3.391571 -13.448915  46.747600  -0.000127  -0.000490  -4.938254  -2.771721   4.746580   2.806252   0.000152   0.000168 -25.401815   3.959287  22.455945  56.586646  -0.000253   0.001183 -29.395458   5.764886  -0.178127  -0.160939  -0.000383  -0.000239
 -2.258839   0.799459   4.039555  -2.224293  16.486809  -0.422761  63.390685   0.526730   5.976046   0.229842   0.366910   1.801611  -8.572341  -5.593764  -3.632162  -7.897050  24.268367   8.757459 -29.082190   2.211282  29.324545  -0.000372  59.650698   0.000570  -0.286482   2.507425 -10.379578  -4.106826 -14.909842  -7.844666 -12.957635   1.295171 -37.877702   0.006410 -85.363246   0.006741   1.008850  -5.967708  16.392803 -41.313171  -3.393593 -13.422922  46.400521  -0.000065  -0.000166  -4.888721  -2.791431   4.725140   2.853192   0.000125   0.000098 -25.124925   3.971087  22.293528  56.290212  -0.000016   0.001607 -29.450147   5.736706  -0.083468   0.016549  -0.000338  -0.000636
 -2.258364   0.800751   4.040010  -2.207632  16.368575  -0.422489  63.070609   0.488174   5.875032   0.329581   0.384042   1.765166  -8.610106  -5.604566  -3.580544  -7.865563  24.083287   8.835805 -28.881200   2.049108  29.495034  -0.000437  59.743040   0.000667  -0.275580   2.558229 -10.347176  -4.043182 -14.791291  -7.818642 -12.952050   1.304240 -37.967894   0.005382 -85.347698   0.005655   1.001582  -5.854408  16.292290 -41.077386  -3.412124 -13.375483  45.954396  -0.000021   0.000119  -4.604816  -2.786148   4.726226   2.866798   0.000100   0.000070 -24.848088   3.963784  22.144315  55.920762   0.000253   0.002146 -29.204621   5.713333  -0.031704   0.167620  -0.000282  -0.000901
 -2.257824   0.802082   4.040558  -2.181110  16.246916  -0.434828  62.729453   0.441186   5.782030   0.416222   0.394876   1.738572  -8.643188  -5.613917  -3.532247  -7.812839  23.891068   8.919297 -28.675433   1.881556  29.664567  -0.000518  59.827310   0.000772  -0.264085   2.606371 -10.279880  -3.980967 -14.670417  -7.790849 -12.945422   1.314887 -38.052262   0.004445 -85.339268   0.004666   1.001079  -5.770664  16.201296 -40.838103  -3.438624 -13.321324  45.500340   0.000005   0.000365  -4.344270  -2.781361   4.726883   2.897071   0.000080   0.000038 -24.568188   3.959090  22.003610  55.541532   0.000467   0.002608 -28.972802   5.690085   0.019690   0.329218  -0.000236  -0.001142
 -2.257217   0.803405   4.041175  -2.148422  16.120941  -0.455865  62.378735   0.386924   5.698697   0.482870   0.398302   1.719927  -8.675864  -5.622549  -3.487919  -7.751633  23.698181   9.003492 -28.474263   1.714008  29.826383  -0.000618  59.902584   0.000883  -0.256139   2.635070 -10.202312  -3.921509 -14.551184  -7.760552 -12.938668   1.327196 -38.128756   0.003656 -85.333165   0.003833   1.003796  -5.701587  16.120720 -40.601829  -3.469985 -13.264650  45.051832   0.000016   0.000585  -4.108252  -2.777439   4.726740   2.924965   0.000064   0.000011 -24.290153   3.959118  21.871478  55.166426   0.000624   0.002964 -28.759403   5.668022   0.070011   0.477720  -0.000197  -0.001296
 -2.256542   0.804688   4.041848  -2.112660  15.989139  -0.483429  62.024205   0.326788   5.624892   0.529622   0.395016   1.707755  -8.708370  -5.630576  -3.446882  -7.687999  23.507986   9.084071 -28.281707   1.550490  29.977702  -0.000728  59.970613   0.000993  -0.251083   2.648271 -10.126842  -3.866036 -14.435877  -7.728015 -12.932827   1.340013 -38.197597   0.002998 -85.328575   0.003140   1.008234  -5.641431  16.049818 -40.371773  -3.504123 -13.206989  44.616430   0.000016   0.000783  -3.892862  -2.774144   4.726086   2.950052   0.000052  -0.000009 -24.015956   3.964342  21.748091  54.803818   0.000730   0.003213 -28.562059   5.647319   0.118386   0.613369  -0.000163  -0.001381
 -2.255802   0.805914   4.042569  -2.075907  15.850124  -0.516176  61.669761   0.262125   5.559892   0.557887   0.385942   1.700722  -8.740502  -5.638056  -3.408605  -7.625346  23.322741   9.158783 -28.099737   1.393489  30.117552  -0.000840  60.032907   0.001096  -0.247751   2.652318 -10.058699  -3.815167 -14.325912  -7.693853 -12.928455   1.352442 -38.259457   0.002451 -85.325262   0.002563   1.014010  -5.588691  15.987490 -40.149865  -3.539821 -13.149020  44.198691   0.000008   0.000964  -3.695044  -2.771311   4.725167   2.972693   0.000042  -0.000026 -23.746326   3.974554  21.633187  54.458804   0.000795   0.003367 -28.378736   5.627958   0.164414   0.737366  -0.000133  -0.001415
 -2.255155   0.807126   4.043340  -2.042122  15.786194  -0.546241  61.327675   0.179016   5.525364   0.569522   0.360364   1.721223  -8.772730  -5.645803  -3.368825  -7.564333  23.140538   9.229846 -27.928478   1.241166  30.246037  -0.000922  60.089588   0.001158  -0.246350   2.648411 -10.009365  -3.774506 -14.228256  -7.652646 -12.930232   1.359584 -38.311367   0.001986 -85.323705   0.002075   1.022054  -5.545642  15.930206 -39.917542  -3.583831 -13.112153  43.804866  -0.000048   0.000902  -3.512447  -2.770410   4.725555   2.991753   0.000037  -0.000028 -23.522828   4.045151  21.578573  54.128491   0.000659   0.003016 -28.326581   5.739394   0.209511   0.861867  -0.000111  -0.001124
 -2.254614   0.808530   4.044229  -2.017650  15.792038  -0.548357  60.963608   0.071339   5.483802   0.627156   0.345948   1.764379  -8.795585  -5.636597  -3.334074  -7.487117  22.895375   9.263475 -27.663317   1.060510  30.402575  -0.001060  60.195878   0.001265  -0.248897   2.687050 -10.002802  -3.761631 -14.105587  -7.615620 -12.951927   1.347078 -38.393597  -0.000508 -85.411206  -0.000437   1.035363  -5.467226  15.839058 -39.626063  -3.655180 -13.120828  43.321312  -0.000121   0.000772  -3.105641  -2.761665   4.750719   2.999849   0.000030  -0.000024 -23.266779   4.113940  21.500633  53.710260   0.000498   0.002644 -28.208453   5.798550   0.188610   1.021709  -0.000017  -0.000892
